<?xml version="1.0" encoding="UTF-8" standalone="no"?>
<!-- Created with Inkscape (http://www.inkscape.org/) -->

<svg
   width="210mm"
   height="297mm"
   viewBox="0 0 210 297"
   version="1.1"
   id="svg1"
   inkscape:version="1.3.2 (091e20e, 2023-11-25)"
   sodipodi:docname="logo.svg"
   xmlns:inkscape="http://www.inkscape.org/namespaces/inkscape"
   xmlns:sodipodi="http://sodipodi.sourceforge.net/DTD/sodipodi-0.dtd"
   xmlns="http://www.w3.org/2000/svg"
   xmlns:svg="http://www.w3.org/2000/svg">
  <sodipodi:namedview
     id="namedview1"
     pagecolor="#ffffff"
     bordercolor="#000000"
     borderopacity="0.25"
     inkscape:showpageshadow="2"
     inkscape:pageopacity="0.0"
     inkscape:pagecheckerboard="0"
     inkscape:deskcolor="#d1d1d1"
     inkscape:document-units="mm"
     inkscape:zoom="1.2080082"
     inkscape:cx="346.85195"
     inkscape:cy="522.34745"
     inkscape:window-width="1712"
     inkscape:window-height="1027"
     inkscape:window-x="0"
     inkscape:window-y="43"
     inkscape:window-maximized="0"
     inkscape:current-layer="layer1"
     showgrid="true">
    <inkscape:grid
       id="grid2"
       units="px"
       originx="0"
       originy="0"
       spacingx="0.26458333"
       spacingy="0.26458334"
       empcolor="#0099e5"
       empopacity="0.30196078"
       color="#0099e5"
       opacity="0.14901961"
       empspacing="5"
       dotted="false"
       gridanglex="30"
       gridanglez="30"
       visible="true" />
  </sodipodi:namedview>
  <defs
     id="defs1">
    <inkscape:path-effect
       effect="fillet_chamfer"
       id="path-effect1"
       is_visible="true"
       lpeversion="1"
       nodesatellites_param="F,0,0,1,0,0,0,1 @ F,0,0,1,0,0,0,1 @ F,0,0,1,0,0,0,1 @ F,0,0,1,0,0,0,1 @ F,0,0,1,0,0,0,1 @ F,0,0,1,0,0,0,1 @ F,0,0,1,0,0,0,1 @ F,0,0,1,0,0,0,1 @ F,0,0,1,0,0,0,1 @ F,0,0,1,0,0,0,1 @ F,0,0,1,0,0,0,1 @ F,0,0,1,0,0,0,1 @ F,0,0,1,0,0,0,1 @ F,0,0,1,0,0,0,1 @ F,0,0,1,0,0,0,1 @ F,0,0,1,0,0,0,1 @ F,0,0,1,0,0,0,1 | F,0,0,1,0,0,0,1 @ F,0,0,1,0,0,0,1 @ F,0,0,1,0,0,0,1 @ F,0,0,1,0,0,0,1 @ F,0,0,1,0,0,0,1 @ F,0,0,1,0,0,0,1 @ F,0,0,1,0,0,0,1 @ F,0,0,1,0,0,0,1 @ F,0,0,1,0,0,0,1 @ F,0,0,1,0,0,0,1 @ F,0,0,1,0,0,0,1 @ F,0,0,1,0,0,0,1 @ F,0,0,1,0,0,0,1 @ F,0,0,1,0,0,0,1 @ F,0,0,1,0,0,0,1 @ F,0,0,1,0,0,0,1"
       radius="0"
       unit="px"
       method="auto"
       mode="F"
       chamfer_steps="1"
       flexible="false"
       use_knot_distance="true"
       apply_no_radius="true"
       apply_with_radius="true"
       only_selected="false"
       hide_knots="false" />
  </defs>
  <g
     inkscape:label="Layer 1"
     inkscape:groupmode="layer"
     id="layer1">
    <rect
       style="fill:none;fill-opacity:1;stroke:none;stroke-width:0.270833;stroke-miterlimit:1.9;stroke-opacity:1"
       id="rect13"
       width="10"
       height="10"
       x="137.5872"
       y="120.66404"
       inkscape:export-filename="icon.png"
       inkscape:export-xdpi="200"
       inkscape:export-ydpi="200" />
    <text
       xml:space="preserve"
       style="font-weight:500;font-size:11.2889px;line-height:0;font-family:Futura;-inkscape-font-specification:'Futura Medium';letter-spacing:-0.79375px;fill:none;stroke-width:0.3;stroke-miterlimit:1.9"
       x="23.754433"
       y="53.076309"
       id="text1"><tspan
         sodipodi:role="line"
         id="tspan1"
         style="stroke-width:0.3" /></text>
    <text
       xml:space="preserve"
       style="font-style:normal;font-variant:normal;font-weight:normal;font-stretch:normal;font-size:11.2889px;line-height:0;font-family:'PT Sans';-inkscape-font-specification:'PT Sans';letter-spacing:0px;fill:#000000;stroke-width:0.3;stroke-miterlimit:1.9"
       x="46.357288"
       y="80.170837"
       id="text6"><tspan
         sodipodi:role="line"
         id="tspan6"
         style="stroke-width:0.3"
         x="46.357288"
         y="80.170837" /></text>
    <path
       id="rect7"
       style="fill:#7b8a8b;stroke:#7b8a8b;stroke-width:0.720027;stroke-miterlimit:1.9;stroke-opacity:1;fill-opacity:1"
       d="m 34.237703,94.544651 c -6.213343,0 -11.215336,5.0025 -11.215336,11.215849 v 16.05018 H 96.38068 V 105.7605 c 0,-6.213349 -5.001992,-11.215849 -11.215336,-11.215849 z"
       inkscape:export-filename="logomain.svg"
       inkscape:export-xdpi="200"
       inkscape:export-ydpi="200" />
    <path
       id="rect7-6"
       style="fill:#7b8a8b;fill-opacity:1;stroke:none;stroke-width:0.151871;stroke-miterlimit:1.9;stroke-opacity:1"
       d="m 140.10245,122.13069 c -0.83951,0.009 -2.4951,1.0143 -2.48782,3.06003 l 0.0194,5.43838 h 9.9122 l -0.0194,-5.43838 c -0.007,-2.04573 -1.57085,-3.1219 -2.41037,-3.11303 z"
       sodipodi:nodetypes="ssccsss"
       inkscape:export-filename="icon.png"
       inkscape:export-xdpi="200"
       inkscape:export-ydpi="200" />
    <text
       xml:space="preserve"
       style="font-style:normal;font-variant:normal;font-weight:normal;font-stretch:normal;font-size:11.2889px;line-height:0;font-family:'PT Sans';-inkscape-font-specification:'PT Sans';letter-spacing:0px;fill:#ffffff;stroke-width:0.3;stroke-miterlimit:1.9"
       x="28.543667"
       y="108.64774"
       id="text4-9-8"
       inkscape:export-filename="logo.png"
       inkscape:export-xdpi="200"
       inkscape:export-ydpi="200"><tspan
         sodipodi:role="line"
         id="tspan4-9-8"
         style="font-style:normal;font-variant:normal;font-weight:bold;font-stretch:normal;font-family:'PT Sans';-inkscape-font-specification:'PT Sans Bold';fill:#ffffff;stroke-width:0.3"
         x="28.543667"
         y="108.64774">D</tspan></text>
    <text
       xml:space="preserve"
       style="font-style:normal;font-variant:normal;font-weight:normal;font-stretch:normal;font-size:8.60758px;line-height:0;font-family:'PT Sans';-inkscape-font-specification:'PT Sans';letter-spacing:0px;fill:#ffffff;stroke-width:0.228744;stroke-miterlimit:1.9"
       x="135.89757"
       y="133.14883"
       id="text4-9-8-0"
       inkscape:export-filename="logo.png"
       inkscape:export-xdpi="200"
       inkscape:export-ydpi="200"
       transform="scale(1.0293627,0.97147487)"><tspan
         sodipodi:role="line"
         id="tspan4-9-8-7"
         style="font-style:normal;font-variant:normal;font-weight:bold;font-stretch:normal;font-family:'PT Sans';-inkscape-font-specification:'PT Sans Bold';fill:#ffffff;stroke-width:0.228744"
         x="135.89757"
         y="133.14883">D</tspan></text>
    <text
       xml:space="preserve"
       style="font-style:normal;font-variant:normal;font-weight:normal;font-stretch:normal;font-size:11.2889px;line-height:0;font-family:'PT Sans';-inkscape-font-specification:'PT Sans';letter-spacing:0px;fill:#ffffff;stroke-width:0.3;stroke-miterlimit:1.9"
       x="35.008186"
       y="108.68163"
       id="text5-1-7"><tspan
         sodipodi:role="line"
         id="tspan5-7-1"
         style="font-style:normal;font-variant:normal;font-weight:bold;font-stretch:normal;font-family:'PT Sans';-inkscape-font-specification:'PT Sans Bold';fill:#ffffff;stroke-width:0.3"
         x="35.008186"
         y="108.68163">A</tspan></text>
    <text
       xml:space="preserve"
       style="font-style:normal;font-variant:normal;font-weight:normal;font-stretch:normal;font-size:11.2889px;line-height:0;font-family:'PT Sans';-inkscape-font-specification:'PT Sans';letter-spacing:0px;fill:#ffffff;stroke-width:0.3;stroke-miterlimit:1.9"
       x="41.256817"
       y="108.68163"
       id="text7-2-9"><tspan
         sodipodi:role="line"
         id="tspan7-36-3"
         style="font-style:normal;font-variant:normal;font-weight:bold;font-stretch:normal;font-family:'PT Sans';-inkscape-font-specification:'PT Sans Bold';fill:#ffffff;stroke-width:0.3"
         x="41.256817"
         y="108.68163">N</tspan></text>
    <text
       xml:space="preserve"
       style="font-style:normal;font-variant:normal;font-weight:normal;font-stretch:normal;font-size:16.3684px;line-height:0;font-family:'PT Sans';-inkscape-font-specification:'PT Sans';letter-spacing:0px;fill:#ffffff;stroke-width:0.434987;stroke-miterlimit:1.9"
       x="69.921036"
       y="80.950974"
       id="text8-55-1"
       transform="scale(0.68967548,1.4499573)"><tspan
         sodipodi:role="line"
         id="tspan8-8-1"
         style="font-style:normal;font-variant:normal;font-weight:bold;font-stretch:normal;font-family:'PT Sans';-inkscape-font-specification:'PT Sans Bold';fill:#ffffff;stroke-width:0.434987"
         x="69.921036"
         y="80.950974">I</tspan></text>
    <text
       xml:space="preserve"
       style="font-style:normal;font-variant:normal;font-weight:normal;font-stretch:normal;font-size:11.2889px;line-height:0;font-family:'PT Sans';-inkscape-font-specification:'PT Sans';letter-spacing:0px;fill:#ffffff;stroke-width:0.3;stroke-miterlimit:1.9"
       x="51.492798"
       y="108.67293"
       id="text9-1-4"><tspan
         sodipodi:role="line"
         id="tspan9-4-9"
         style="font-style:normal;font-variant:normal;font-weight:bold;font-stretch:normal;font-family:'PT Sans';-inkscape-font-specification:'PT Sans Bold';fill:#ffffff;stroke-width:0.3"
         x="51.492798"
         y="108.67293">E</tspan></text>
    <text
       xml:space="preserve"
       style="font-style:normal;font-variant:normal;font-weight:normal;font-stretch:normal;font-size:11.2889px;line-height:0;font-family:'PT Sans';-inkscape-font-specification:'PT Sans';letter-spacing:0px;fill:#ffffff;stroke-width:0.3;stroke-miterlimit:1.9"
       x="57.135773"
       y="108.66577"
       id="text10-7-5"><tspan
         sodipodi:role="line"
         id="tspan10-1-9"
         style="font-style:normal;font-variant:normal;font-weight:bold;font-stretch:normal;font-family:'PT Sans';-inkscape-font-specification:'PT Sans Bold';fill:#ffffff;stroke-width:0.3"
         x="57.135773"
         y="108.66577">L</tspan></text>
    <path
       style="font-weight:bold;font-size:11.2889px;line-height:0;font-family:'PT Sans';-inkscape-font-specification:'PT Sans Bold';letter-spacing:0px;fill:#ffffff;stroke-width:0.298298;stroke-miterlimit:1.9"
       d="m 34.524504,117.14271 -1.27e-4,0.004 c -0.154282,0.0614 -0.441623,0.16268 -0.629771,0.19988 -0.368771,0.0744 -0.74883,0.11161 -1.140179,0.11161 -0.474133,0 -0.925689,-0.0707 -1.354668,-0.21206 -0.421452,-0.14881 -0.793986,-0.3832 -1.117601,-0.70315 -0.323615,-0.3274 -0.58326,-0.7478 -0.778934,-1.26121 -0.188149,-0.52086 -0.282223,-1.1496 -0.282223,-1.88624 0,-0.7664 0.105363,-1.4063 0.31609,-1.91972 0.218252,-0.52085 0.496711,-0.93753 0.835378,-1.25005 0.346193,-0.31995 0.730016,-0.54689 1.151468,-0.68083 0.421453,-0.14137 0.842905,-0.21206 1.264357,-0.21206 0.451556,0 0.831616,0.0298 1.140179,0.0893 0.158045,0.0298 0.301978,0.0623 0.4318,0.0977 0.129823,0.0354 -0.05288,-0.006 0.04872,0.0348 l -0.0064,1.37431 c -0.173097,-0.0819 -0.38006,-0.14138 -0.62089,-0.17858 -0.233304,-0.0372 -0.519289,-0.0558 -0.857956,-0.0558 -0.624653,0 -1.12889,0.2195 -1.512713,0.65851 -0.376297,0.439 -0.564445,1.11983 -0.564445,2.04249 0,0.4018 0.04516,0.77012 0.135467,1.10495 0.09031,0.3274 0.225778,0.61015 0.4064,0.84825 0.188149,0.23067 0.41769,0.41296 0.688623,0.5469 0.27846,0.12649 0.598312,0.18974 0.959557,0.18974 0.338667,0 0.624652,-0.0335 0.857956,-0.10045 0.233304,-0.067 0.436504,-0.15254 0.609601,-0.25671 z"
       id="text11-3-0"
       aria-label="C"
       sodipodi:nodetypes="cccscccscccscscccscscccsscc" />
    <text
       xml:space="preserve"
       style="font-style:normal;font-variant:normal;font-weight:normal;font-stretch:normal;font-size:11.2889px;line-height:0;font-family:'PT Sans';-inkscape-font-specification:'PT Sans';letter-spacing:0px;fill:#ffffff;stroke-width:0.3;stroke-miterlimit:1.9"
       x="35.007999"
       y="117.38155"
       id="text12-8-9"><tspan
         sodipodi:role="line"
         id="tspan12-4-3"
         style="font-style:normal;font-variant:normal;font-weight:bold;font-stretch:normal;font-family:'PT Sans';-inkscape-font-specification:'PT Sans Bold';fill:#ffffff;stroke-width:0.3"
         x="35.007999"
         y="117.38155">A</tspan></text>
    <path
       id="text13-8-4"
       style="font-weight:bold;font-size:11.2889px;line-height:0;font-family:'PT Sans';-inkscape-font-specification:'PT Sans Bold';letter-spacing:0px;fill:#ffffff;stroke-width:0.3;stroke-miterlimit:1.9"
       d="m 44.641696,109.3325 c -0.376297,0 -0.75616,0.0192 -1.139982,0.0568 -0.376297,0.0301 -0.722608,0.0752 -1.038697,0.13539 v 7.8233 h 1.546676 v -2.58434 -0.13643 -1.34358 -0.0398 -2.52285 c 0.08279,-0.0151 0.191645,-0.0261 0.327112,-0.0336 0.135467,-0.0151 0.278395,-0.0227 0.428914,-0.0227 0.195674,0 0.388043,0.0187 0.576192,0.0563 0.188148,0.0376 0.353618,0.10577 0.496611,0.20361 0.150519,0.0978 0.270908,0.22923 0.361218,0.39481 0.09031,0.15804 0.135392,0.36142 0.135392,0.60978 0,0.29351 -0.04892,0.53044 -0.146761,0.71106 -0.09031,0.18063 -0.214542,0.32356 -0.372587,0.42892 -0.158045,0.0978 -0.338886,0.16546 -0.542086,0.20309 -0.195673,0.0376 -0.394695,0.0568 -0.597896,0.0568 h -0.03669 v 1.34307 h 0.08165 0.180867 c 0.391349,0 0.767369,-0.0489 1.128613,-0.14676 0.368771,-0.0978 0.696385,-0.25562 0.982369,-0.47388 0.285985,-0.21825 0.515234,-0.49694 0.68833,-0.8356 0.173094,-0.3462 0.259933,-0.76782 0.259933,-1.26453 0,-0.54939 -0.101691,-0.99303 -0.304891,-1.3317 -0.195675,-0.34618 -0.451824,-0.61334 -0.767913,-0.80149 -0.316089,-0.19568 -0.673411,-0.32375 -1.072286,-0.38396 -0.391347,-0.0677 -0.78274,-0.1018 -1.174088,-0.1018 z" />
    <text
       xml:space="preserve"
       style="font-style:normal;font-variant:normal;font-weight:normal;font-stretch:normal;font-size:11.2889px;line-height:0;font-family:'PT Sans';-inkscape-font-specification:'PT Sans';letter-spacing:0px;fill:#ffffff;stroke-width:0.3;stroke-miterlimit:1.9"
       x="51.228348"
       y="117.31543"
       id="text15-0-0"><tspan
         sodipodi:role="line"
         id="tspan15-4-7"
         style="font-style:normal;font-variant:normal;font-weight:bold;font-stretch:normal;font-family:'PT Sans';-inkscape-font-specification:'PT Sans Bold';fill:#ffffff;stroke-width:0.3"
         x="51.228348"
         y="117.31543">S</tspan></text>
    <text
       xml:space="preserve"
       style="font-style:normal;font-variant:normal;font-weight:normal;font-stretch:normal;font-size:11.2889px;line-height:0;font-family:'PT Sans';-inkscape-font-specification:'PT Sans';letter-spacing:0px;fill:#ffffff;stroke-width:0.3;stroke-miterlimit:1.9"
       x="56.689568"
       y="117.35738"
       id="text16-6-5"><tspan
         sodipodi:role="line"
         id="tspan16-0-7"
         style="font-style:normal;font-variant:normal;font-weight:bold;font-stretch:normal;font-family:'PT Sans';-inkscape-font-specification:'PT Sans Bold';fill:#ffffff;stroke-width:0.3"
         x="56.689568"
         y="117.35738">T</tspan></text>
    <path
       style="font-weight:bold;font-size:11.2889px;line-height:0;font-family:'PT Sans';-inkscape-font-specification:'PT Sans Bold';letter-spacing:0px;fill:#ffffff;stroke-width:0.3;stroke-miterlimit:1.9"
       d="m 63.197819,109.54717 c 0.173097,-0.0301 0.357482,-0.0564 0.553157,-0.079 0.2032,-0.0301 0.402637,-0.0527 0.598311,-0.0677 0.203201,-0.0151 0.398875,-0.0263 0.587023,-0.0339 0.188149,-0.007 0.361245,-0.0113 0.51929,-0.0113 0.368771,0 0.730015,0.0339 1.083734,0.1016 0.361245,0.0677 0.681097,0.18439 0.959556,0.34996 0.285986,0.16557 0.511764,0.39511 0.677335,0.68862 0.173096,0.28599 0.259644,0.64723 0.259644,1.08374 0,0.64723 -0.119514,1.17847 -0.420551,1.58487 -0.301037,0.4064 -0.420192,0.58423 -0.92443,0.74227 l 0.260816,0.4455 2.20314,3.77537 -1.683572,0.006 -2.286813,-4.00182 -0.84006,-10e-4 v 3.23991 h -1.54658 z m 2.37067,1.18534 c -0.158045,0 -0.316089,0.004 -0.474134,0.0113 -0.150519,0.007 -0.267171,0.0226 -0.349956,0.0452 v 2.29164 h 0.654756 c 0.428978,0 0.771408,-0.0978 1.02729,-0.29351 0.255882,-0.19567 0.383823,-0.51929 0.383823,-0.97084 0,-0.33867 -0.105363,-0.60208 -0.31609,-0.79023 -0.210726,-0.19567 -0.519289,-0.29351 -0.925689,-0.29351 z"
       id="text17-3-5"
       aria-label="R"
       sodipodi:nodetypes="cccsscccsscccccccccscccssscss" />
    <text
       xml:space="preserve"
       style="font-style:normal;font-variant:normal;font-weight:normal;font-stretch:normal;font-size:11.2889px;line-height:0;font-family:'PT Sans';-inkscape-font-specification:'PT Sans';letter-spacing:0px;fill:#ffffff;stroke-width:0.3;stroke-miterlimit:1.9"
       x="69.136597"
       y="117.37143"
       id="text18-2-0"><tspan
         sodipodi:role="line"
         id="tspan18-6-6"
         style="font-style:normal;font-variant:normal;font-weight:bold;font-stretch:normal;font-family:'PT Sans';-inkscape-font-specification:'PT Sans Bold';fill:#ffffff;stroke-width:0.3"
         x="69.136597"
         y="117.37143">A</tspan></text>
    <text
       xml:space="preserve"
       style="font-style:normal;font-variant:normal;font-weight:normal;font-stretch:normal;font-size:11.2889px;line-height:0;font-family:'PT Sans';-inkscape-font-specification:'PT Sans';letter-spacing:0px;fill:#ffffff;stroke-width:0.3;stroke-miterlimit:1.9"
       x="75.290253"
       y="117.37047"
       id="text19-9-4"><tspan
         sodipodi:role="line"
         id="tspan19-4-7"
         style="font-style:normal;font-variant:normal;font-weight:bold;font-stretch:normal;font-family:'PT Sans';-inkscape-font-specification:'PT Sans Bold';fill:#ffffff;stroke-width:0.3"
         x="75.290253"
         y="117.37047">N</tspan></text>
    <text
       xml:space="preserve"
       style="font-style:normal;font-variant:normal;font-weight:bold;font-stretch:normal;font-size:11.2889px;line-height:0;font-family:'PT Sans';-inkscape-font-specification:'PT Sans Bold';letter-spacing:0px;fill:#ffffff;stroke-width:0.3;stroke-miterlimit:1.9"
       x="82.16198"
       y="117.47202"
       id="text21-1-8"><tspan
         sodipodi:role="line"
         id="tspan21-3-4"
         style="fill:#ffffff;stroke-width:0.3"
         x="82.16198"
         y="117.47202">O</tspan></text>
    <path
       id="rect7-7"
       style="fill:#222222;fill-opacity:1;stroke:none;stroke-width:0.720027;stroke-miterlimit:1.9;stroke-opacity:1"
       d="m 30.480717,134.72189 c -6.213343,0 -11.215336,5.0025 -11.215336,11.21585 v 16.05018 h 73.358313 v -16.05018 c 0,-6.21335 -5.001992,-11.21585 -11.215336,-11.21585 z"
       inkscape:export-filename="logo_dark.png"
       inkscape:export-xdpi="200"
       inkscape:export-ydpi="200" />
    <text
       xml:space="preserve"
       style="font-style:normal;font-variant:normal;font-weight:normal;font-stretch:normal;font-size:11.2889px;line-height:0;font-family:'PT Sans';-inkscape-font-specification:'PT Sans';letter-spacing:0px;fill:#ffffff;stroke-width:0.3;stroke-miterlimit:1.9"
       x="24.786682"
       y="148.82498"
       id="text4-9-8-3"
       inkscape:export-filename="logo.png"
       inkscape:export-xdpi="200"
       inkscape:export-ydpi="200"><tspan
         sodipodi:role="line"
         id="tspan4-9-8-79"
         style="font-style:normal;font-variant:normal;font-weight:bold;font-stretch:normal;font-family:'PT Sans';-inkscape-font-specification:'PT Sans Bold';fill:#ffffff;stroke-width:0.3"
         x="24.786682"
         y="148.82498">D</tspan></text>
    <text
       xml:space="preserve"
       style="font-style:normal;font-variant:normal;font-weight:normal;font-stretch:normal;font-size:11.2889px;line-height:0;font-family:'PT Sans';-inkscape-font-specification:'PT Sans';letter-spacing:0px;fill:#ffffff;stroke-width:0.3;stroke-miterlimit:1.9"
       x="31.2512"
       y="148.85887"
       id="text5-1-7-0"><tspan
         sodipodi:role="line"
         id="tspan5-7-1-2"
         style="font-style:normal;font-variant:normal;font-weight:bold;font-stretch:normal;font-family:'PT Sans';-inkscape-font-specification:'PT Sans Bold';fill:#ffffff;stroke-width:0.3"
         x="31.2512"
         y="148.85887">A</tspan></text>
    <text
       xml:space="preserve"
       style="font-style:normal;font-variant:normal;font-weight:normal;font-stretch:normal;font-size:11.2889px;line-height:0;font-family:'PT Sans';-inkscape-font-specification:'PT Sans';letter-spacing:0px;fill:#ffffff;stroke-width:0.3;stroke-miterlimit:1.9"
       x="37.499832"
       y="148.85887"
       id="text7-2-9-3"><tspan
         sodipodi:role="line"
         id="tspan7-36-3-9"
         style="font-style:normal;font-variant:normal;font-weight:bold;font-stretch:normal;font-family:'PT Sans';-inkscape-font-specification:'PT Sans Bold';fill:#ffffff;stroke-width:0.3"
         x="37.499832"
         y="148.85887">N</tspan></text>
    <text
       xml:space="preserve"
       style="font-style:normal;font-variant:normal;font-weight:normal;font-stretch:normal;font-size:16.3684px;line-height:0;font-family:'PT Sans';-inkscape-font-specification:'PT Sans';letter-spacing:0px;fill:#ffffff;stroke-width:0.434987;stroke-miterlimit:1.9"
       x="64.473564"
       y="108.66023"
       id="text8-55-1-9"
       transform="scale(0.68967548,1.4499573)"><tspan
         sodipodi:role="line"
         id="tspan8-8-1-7"
         style="font-style:normal;font-variant:normal;font-weight:bold;font-stretch:normal;font-family:'PT Sans';-inkscape-font-specification:'PT Sans Bold';fill:#ffffff;stroke-width:0.434987"
         x="64.473564"
         y="108.66023">I</tspan></text>
    <text
       xml:space="preserve"
       style="font-style:normal;font-variant:normal;font-weight:normal;font-stretch:normal;font-size:11.2889px;line-height:0;font-family:'PT Sans';-inkscape-font-specification:'PT Sans';letter-spacing:0px;fill:#ffffff;stroke-width:0.3;stroke-miterlimit:1.9"
       x="47.735813"
       y="148.85016"
       id="text9-1-4-0"><tspan
         sodipodi:role="line"
         id="tspan9-4-9-3"
         style="font-style:normal;font-variant:normal;font-weight:bold;font-stretch:normal;font-family:'PT Sans';-inkscape-font-specification:'PT Sans Bold';fill:#ffffff;stroke-width:0.3"
         x="47.735813"
         y="148.85016">E</tspan></text>
    <text
       xml:space="preserve"
       style="font-style:normal;font-variant:normal;font-weight:normal;font-stretch:normal;font-size:11.2889px;line-height:0;font-family:'PT Sans';-inkscape-font-specification:'PT Sans';letter-spacing:0px;fill:#ffffff;stroke-width:0.3;stroke-miterlimit:1.9"
       x="53.378788"
       y="148.843"
       id="text10-7-5-9"><tspan
         sodipodi:role="line"
         id="tspan10-1-9-8"
         style="font-style:normal;font-variant:normal;font-weight:bold;font-stretch:normal;font-family:'PT Sans';-inkscape-font-specification:'PT Sans Bold';fill:#ffffff;stroke-width:0.3"
         x="53.378788"
         y="148.843">L</tspan></text>
    <path
       style="font-weight:bold;font-size:11.2889px;line-height:0;font-family:'PT Sans';-inkscape-font-specification:'PT Sans Bold';letter-spacing:0px;fill:#ffffff;stroke-width:0.298298;stroke-miterlimit:1.9"
       d="m 30.767518,157.31995 -1.27e-4,0.004 c -0.154282,0.0614 -0.441623,0.16268 -0.629771,0.19988 -0.368771,0.0744 -0.74883,0.11161 -1.140179,0.11161 -0.474133,0 -0.925689,-0.0707 -1.354668,-0.21206 -0.421452,-0.14881 -0.793986,-0.3832 -1.117601,-0.70315 -0.323615,-0.3274 -0.58326,-0.7478 -0.778934,-1.26121 -0.188149,-0.52086 -0.282223,-1.1496 -0.282223,-1.88624 0,-0.7664 0.105363,-1.4063 0.31609,-1.91972 0.218252,-0.52085 0.496711,-0.93753 0.835378,-1.25005 0.346193,-0.31995 0.730016,-0.54689 1.151468,-0.68083 0.421453,-0.14137 0.842905,-0.21206 1.264357,-0.21206 0.451556,0 0.831616,0.0298 1.140179,0.0893 0.158045,0.0298 0.301978,0.0623 0.4318,0.0977 0.129823,0.0354 -0.05288,-0.006 0.04872,0.0348 l -0.0064,1.37431 c -0.173097,-0.0819 -0.38006,-0.14138 -0.62089,-0.17858 -0.233304,-0.0372 -0.519289,-0.0558 -0.857956,-0.0558 -0.624653,0 -1.12889,0.2195 -1.512713,0.65851 -0.376297,0.439 -0.564445,1.11983 -0.564445,2.04249 0,0.4018 0.04516,0.77012 0.135467,1.10495 0.09031,0.3274 0.225778,0.61015 0.4064,0.84825 0.188149,0.23067 0.41769,0.41296 0.688623,0.5469 0.27846,0.12649 0.598312,0.18974 0.959557,0.18974 0.338667,0 0.624652,-0.0335 0.857956,-0.10045 0.233304,-0.067 0.436504,-0.15254 0.609601,-0.25671 z"
       id="text11-3-0-6"
       aria-label="C"
       sodipodi:nodetypes="cccscccscccscscccscscccsscc" />
    <text
       xml:space="preserve"
       style="font-style:normal;font-variant:normal;font-weight:normal;font-stretch:normal;font-size:11.2889px;line-height:0;font-family:'PT Sans';-inkscape-font-specification:'PT Sans';letter-spacing:0px;fill:#ffffff;stroke-width:0.3;stroke-miterlimit:1.9"
       x="31.251013"
       y="157.55879"
       id="text12-8-9-5"><tspan
         sodipodi:role="line"
         id="tspan12-4-3-7"
         style="font-style:normal;font-variant:normal;font-weight:bold;font-stretch:normal;font-family:'PT Sans';-inkscape-font-specification:'PT Sans Bold';fill:#ffffff;stroke-width:0.3"
         x="31.251013"
         y="157.55879">A</tspan></text>
    <path
       id="text13-8-4-6"
       style="font-weight:bold;font-size:11.2889px;line-height:0;font-family:'PT Sans';-inkscape-font-specification:'PT Sans Bold';letter-spacing:0px;fill:#ffffff;stroke-width:0.3;stroke-miterlimit:1.9"
       d="m 40.88471,149.50974 c -0.376297,0 -0.75616,0.0192 -1.139982,0.0568 -0.376297,0.0301 -0.722608,0.0752 -1.038697,0.13539 v 7.8233 h 1.546676 v -2.58434 -0.13643 -1.34358 -0.0398 -2.52285 c 0.08279,-0.0151 0.191645,-0.0261 0.327112,-0.0336 0.135467,-0.0151 0.278395,-0.0227 0.428914,-0.0227 0.195674,0 0.388043,0.0187 0.576192,0.0563 0.188148,0.0376 0.353618,0.10577 0.496611,0.20361 0.150519,0.0978 0.270908,0.22923 0.361218,0.39481 0.09031,0.15804 0.135392,0.36142 0.135392,0.60978 0,0.29351 -0.04892,0.53044 -0.146761,0.71106 -0.09031,0.18063 -0.214542,0.32356 -0.372587,0.42892 -0.158045,0.0978 -0.338886,0.16546 -0.542086,0.20309 -0.195673,0.0376 -0.394695,0.0568 -0.597896,0.0568 h -0.03669 v 1.34307 h 0.08165 0.180867 c 0.391349,0 0.767369,-0.0489 1.128613,-0.14676 0.368771,-0.0978 0.696385,-0.25562 0.982369,-0.47388 0.285985,-0.21825 0.515234,-0.49694 0.68833,-0.8356 0.173094,-0.3462 0.259933,-0.76782 0.259933,-1.26453 0,-0.54939 -0.101691,-0.99303 -0.304891,-1.3317 -0.195675,-0.34618 -0.451824,-0.61334 -0.767913,-0.80149 -0.316089,-0.19568 -0.673411,-0.32375 -1.072286,-0.38396 -0.391347,-0.0677 -0.78274,-0.1018 -1.174088,-0.1018 z" />
    <text
       xml:space="preserve"
       style="font-style:normal;font-variant:normal;font-weight:normal;font-stretch:normal;font-size:11.2889px;line-height:0;font-family:'PT Sans';-inkscape-font-specification:'PT Sans';letter-spacing:0px;fill:#ffffff;stroke-width:0.3;stroke-miterlimit:1.9"
       x="47.471363"
       y="157.49266"
       id="text15-0-0-2"><tspan
         sodipodi:role="line"
         id="tspan15-4-7-7"
         style="font-style:normal;font-variant:normal;font-weight:bold;font-stretch:normal;font-family:'PT Sans';-inkscape-font-specification:'PT Sans Bold';fill:#ffffff;stroke-width:0.3"
         x="47.471363"
         y="157.49266">S</tspan></text>
    <text
       xml:space="preserve"
       style="font-style:normal;font-variant:normal;font-weight:normal;font-stretch:normal;font-size:11.2889px;line-height:0;font-family:'PT Sans';-inkscape-font-specification:'PT Sans';letter-spacing:0px;fill:#ffffff;stroke-width:0.3;stroke-miterlimit:1.9"
       x="52.932583"
       y="157.53462"
       id="text16-6-5-0"><tspan
         sodipodi:role="line"
         id="tspan16-0-7-3"
         style="font-style:normal;font-variant:normal;font-weight:bold;font-stretch:normal;font-family:'PT Sans';-inkscape-font-specification:'PT Sans Bold';fill:#ffffff;stroke-width:0.3"
         x="52.932583"
         y="157.53462">T</tspan></text>
    <path
       style="font-weight:bold;font-size:11.2889px;line-height:0;font-family:'PT Sans';-inkscape-font-specification:'PT Sans Bold';letter-spacing:0px;fill:#ffffff;stroke-width:0.3;stroke-miterlimit:1.9"
       d="m 59.440833,149.72441 c 0.173097,-0.0301 0.357482,-0.0564 0.553157,-0.079 0.2032,-0.0301 0.402637,-0.0527 0.598311,-0.0677 0.203201,-0.0151 0.398875,-0.0263 0.587023,-0.0339 0.188149,-0.007 0.361245,-0.0113 0.51929,-0.0113 0.368771,0 0.730015,0.0339 1.083734,0.1016 0.361245,0.0677 0.681097,0.18439 0.959556,0.34996 0.285986,0.16557 0.511764,0.39511 0.677335,0.68862 0.173096,0.28599 0.259644,0.64723 0.259644,1.08374 0,0.64723 -0.119514,1.17847 -0.420551,1.58487 -0.301037,0.4064 -0.420192,0.58423 -0.92443,0.74227 l 0.260816,0.4455 2.20314,3.77537 -1.683572,0.006 -2.286813,-4.00182 -0.84006,-0.001 v 3.23991 h -1.54658 z m 2.37067,1.18534 c -0.158045,0 -0.316089,0.004 -0.474134,0.0113 -0.150519,0.007 -0.267171,0.0226 -0.349956,0.0452 v 2.29164 h 0.654756 c 0.428978,0 0.771408,-0.0978 1.02729,-0.29351 0.255882,-0.19567 0.383823,-0.51929 0.383823,-0.97084 0,-0.33867 -0.105363,-0.60208 -0.31609,-0.79023 -0.210726,-0.19567 -0.519289,-0.29351 -0.925689,-0.29351 z"
       id="text17-3-5-9"
       aria-label="R"
       sodipodi:nodetypes="cccsscccsscccccccccscccssscss" />
    <text
       xml:space="preserve"
       style="font-style:normal;font-variant:normal;font-weight:normal;font-stretch:normal;font-size:11.2889px;line-height:0;font-family:'PT Sans';-inkscape-font-specification:'PT Sans';letter-spacing:0px;fill:#ffffff;stroke-width:0.3;stroke-miterlimit:1.9"
       x="65.379608"
       y="157.54866"
       id="text18-2-0-9"><tspan
         sodipodi:role="line"
         id="tspan18-6-6-9"
         style="font-style:normal;font-variant:normal;font-weight:bold;font-stretch:normal;font-family:'PT Sans';-inkscape-font-specification:'PT Sans Bold';fill:#ffffff;stroke-width:0.3"
         x="65.379608"
         y="157.54866">A</tspan></text>
    <text
       xml:space="preserve"
       style="font-style:normal;font-variant:normal;font-weight:normal;font-stretch:normal;font-size:11.2889px;line-height:0;font-family:'PT Sans';-inkscape-font-specification:'PT Sans';letter-spacing:0px;fill:#ffffff;stroke-width:0.3;stroke-miterlimit:1.9"
       x="71.533264"
       y="157.5477"
       id="text19-9-4-1"><tspan
         sodipodi:role="line"
         id="tspan19-4-7-7"
         style="font-style:normal;font-variant:normal;font-weight:bold;font-stretch:normal;font-family:'PT Sans';-inkscape-font-specification:'PT Sans Bold';fill:#ffffff;stroke-width:0.3"
         x="71.533264"
         y="157.5477">N</tspan></text>
    <text
       xml:space="preserve"
       style="font-style:normal;font-variant:normal;font-weight:bold;font-stretch:normal;font-size:11.2889px;line-height:0;font-family:'PT Sans';-inkscape-font-specification:'PT Sans Bold';letter-spacing:0px;fill:#ffffff;stroke-width:0.3;stroke-miterlimit:1.9"
       x="78.404991"
       y="157.64926"
       id="text21-1-8-2"><tspan
         sodipodi:role="line"
         id="tspan21-3-4-3"
         style="fill:#ffffff;stroke-width:0.3"
         x="78.404991"
         y="157.64926">O</tspan></text>
  </g>
</svg>
